<?xml version="1.0" encoding="utf-8"?>
<!-- Generator: Adobe Illustrator 21.0.2, SVG Export Plug-In . SVG Version: 6.00 Build 0)  -->
<svg version="1.1" id="Слой_1" xmlns="http://www.w3.org/2000/svg" xmlns:xlink="http://www.w3.org/1999/xlink" x="0px" y="0px"
	 viewBox="0 0 164 35" style="enable-background:new 0 0 164 35;" xml:space="preserve">
<style type="text/css">
	.st0{fill:#FFC600;}
</style>
<path class="st0" d="M0.3,0.7v33.6h13.5c4.4,0.1,8.7-1.6,11.7-4.8c3.1-3.2,4.8-7.5,4.7-12c0.1-4.5-1.6-8.8-4.7-12
	c-3.1-3.2-7.3-4.9-11.7-4.8L0.3,0.7z M8.1,26.9V8.1h5.8c2.4-0.1,4.8,0.8,6.5,2.6c1.7,1.9,2.6,4.3,2.5,6.8c0.1,2.5-0.8,5-2.5,6.8
	c-1.7,1.7-4.1,2.7-6.5,2.6L8.1,26.9L8.1,26.9z M42.9,21H55v-7.3H42.9V8.1h13.3V0.7h-21v33.6h21.3v-7.4H42.9L42.9,21L42.9,21z
	 M79.2,34.3l11-33.6h-8.5l-7.5,24.7L66.8,0.7h-8.5l11,33.6H79.2z M93.6,34.3h7.7V0.7h-7.7V34.3z M132.2,32.9c2.5-1.3,4.6-3.3,6-5.7
	l-6.7-3.8c-0.7,1.3-1.8,2.4-3.2,3c-1.4,0.7-3,1.1-4.7,1.1c-2.7,0.1-5.3-0.9-7.2-2.7c-1.8-2-2.8-4.6-2.7-7.2
	c-0.1-2.7,0.8-5.3,2.7-7.2c1.9-1.9,4.5-2.9,7.2-2.7c1.6,0,3.2,0.3,4.6,1.1c1.3,0.7,2.5,1.7,3.2,3l6.7-3.8c-1.5-2.4-3.6-4.4-6.1-5.7
	c-2.6-1.4-5.5-2.1-8.4-2.1c-9.5-0.3-17.3,7.2-17.6,16.6c0,0.3,0,0.6,0,0.8c-0.2,9.5,7.3,17.3,16.8,17.5c0.3,0,0.6,0,0.8,0
	C126.7,35,129.6,34.3,132.2,32.9L132.2,32.9z M150.1,21h12.1v-7.3h-12.1V8.1h13.3V0.7h-21v33.6h21.3v-7.4h-13.5L150.1,21L150.1,21z"
	/>
</svg>
